<svg width="198" height="41" viewBox="0 0 198 41" fill="none" xmlns="http://www.w3.org/2000/svg">
<path d="M50.0352 12.9219H44.832V7.29688L41.9492 8.28125V12.9219H38.4336V15.2422H41.9492V25.5781C41.9492 29.3047 43.9883 31.3438 47.4336 31.3438C48.3477 31.3438 49.1914 31.2031 49.9648 30.9219V28.4609C49.332 28.6719 48.6992 28.8125 47.9961 28.8125C46.0273 28.8125 44.832 27.8281 44.832 25.1562V15.2422H50.0352V12.9219ZM66.207 16.0859C65.082 13.8359 62.9023 12.5 60.0898 12.5C55.3086 12.5 52.0742 16.3672 52.0742 21.9922C52.0742 27.6172 55.2383 31.3438 60.0898 31.3438C62.9023 31.3438 65.1523 30.0781 66.207 27.7578V31.0625H69.0898V12.9219H66.207V16.0859ZM66.207 21.9219C66.207 26.3516 64.2383 28.8828 60.6523 28.8828C57.0664 28.8828 55.0273 26.4219 55.0273 21.9922C55.0273 17.5625 57.0664 14.9609 60.6523 14.9609C64.2383 14.9609 66.207 17.4219 66.207 21.9219ZM76.8945 8.5625V5.25781H73.3789V8.5625H76.8945ZM76.543 12.9219H73.6602V31.0625H76.543V12.9219ZM85.1211 4.55469H82.2383V31.0625H85.1211V4.55469ZM104.949 12.9219H102.348L97.0742 27.5469L91.9414 12.9219H88.918L95.5977 31.0625H98.4102L103.543 16.9297L108.746 31.0625H111.559L118.238 12.9219H115.355L110.152 27.6172L104.949 12.9219ZM125.27 8.5625V5.25781H121.754V8.5625H125.27ZM124.918 12.9219H122.035V31.0625H124.918V12.9219ZM146.152 19.6719C146.152 14.8906 143.973 12.5 139.613 12.5C136.801 12.5 134.48 13.8359 133.355 16.2266L133.074 12.9219H130.332C130.473 14.4688 130.613 16.1562 130.613 18.0547V31.0625H133.496V20.7266C133.496 17.2109 135.746 14.9609 139.051 14.9609C141.934 14.9609 143.27 16.5078 143.27 19.8125V31.0625H146.152V19.6719ZM164.504 16.0156C163.449 13.8359 161.27 12.5 158.457 12.5C153.605 12.5 150.441 16.2266 150.441 21.8516C150.441 27.4766 153.676 31.3438 158.457 31.3438C161.27 31.3438 163.52 30.0781 164.574 27.7578V31.0625H167.457V4.55469H164.504V16.0156ZM164.574 21.9219C164.574 26.3516 162.605 28.8828 159.02 28.8828C155.434 28.8828 153.395 26.2812 153.395 21.8516C153.395 17.4922 155.434 14.9609 159.02 14.9609C162.605 14.9609 164.574 17.4922 164.574 21.9219ZM174.91 4.55469H172.027V31.0625H174.91V4.55469ZM187.355 27.8984L181.238 12.9219H178.145L185.809 30.8516L185.105 32.4688C184.543 33.8047 183.77 34.7891 182.926 35.4219C182.012 36.0547 180.746 36.5469 179.059 36.9688L179.691 39.2188C183.559 38.5156 186.23 36.8281 187.988 32.75L196.426 12.9219H193.543L187.355 27.8984Z" fill="black"/>
<path d="M50.0352 12.9219H50.8352V12.1219H50.0352V12.9219ZM44.832 12.9219H44.032V13.7219H44.832V12.9219ZM44.832 7.29689H45.632V6.17836L44.5735 6.53981L44.832 7.29689ZM41.9492 8.28126L41.6907 7.52418L41.1492 7.70908V8.28126H41.9492ZM41.9492 12.9219V13.7219H42.7492V12.9219H41.9492ZM38.4336 12.9219V12.1219H37.6336V12.9219H38.4336ZM38.4336 15.2422H37.6336V16.0422H38.4336V15.2422ZM41.9492 15.2422H42.7492V14.4422H41.9492V15.2422ZM49.9648 30.9219L50.2382 31.6737L50.7648 31.4822V30.9219H49.9648ZM49.9648 28.4609H50.7648V27.351L49.7119 27.702L49.9648 28.4609ZM44.832 15.2422V14.4422H44.032V15.2422H44.832ZM50.0352 15.2422V16.0422H50.8352V15.2422H50.0352ZM50.0352 12.1219H44.832V13.7219H50.0352V12.1219ZM45.632 12.9219V7.29689H44.032V12.9219H45.632ZM44.5735 6.53981L41.6907 7.52418L42.2077 9.03834L45.0905 8.05396L44.5735 6.53981ZM41.1492 8.28126V12.9219H42.7492V8.28126H41.1492ZM41.9492 12.1219H38.4336V13.7219H41.9492V12.1219ZM37.6336 12.9219V15.2422H39.2336V12.9219H37.6336ZM38.4336 16.0422H41.9492V14.4422H38.4336V16.0422ZM41.1492 15.2422V25.5781H42.7492V15.2422H41.1492ZM41.1492 25.5781C41.1492 27.5829 41.6994 29.2476 42.8234 30.4136C43.9513 31.5836 45.5528 32.1438 47.4336 32.1438V30.5437C45.8691 30.5437 44.7284 30.0844 43.9754 29.3032C43.2185 28.518 42.7492 27.2999 42.7492 25.5781H41.1492ZM47.4336 32.1438C48.4306 32.1438 49.368 31.9902 50.2382 31.6737L49.6914 30.17C49.0148 30.4161 48.2647 30.5437 47.4336 30.5437V32.1438ZM50.7648 30.9219V28.4609H49.1648V30.9219H50.7648ZM49.7119 27.702C49.1317 27.8954 48.5873 28.0125 47.9961 28.0125V29.6125C48.8111 29.6125 49.5324 29.4484 50.2178 29.2199L49.7119 27.702ZM47.9961 28.0125C47.136 28.0125 46.5972 27.7987 46.2589 27.4386C45.9103 27.0675 45.632 26.3908 45.632 25.1562H44.032C44.032 26.5935 44.3514 27.745 45.0927 28.5341C45.8442 29.3341 46.8875 29.6125 47.9961 29.6125V28.0125ZM45.632 25.1562V15.2422H44.032V25.1562H45.632ZM44.832 16.0422H50.0352V14.4422H44.832V16.0422ZM50.8352 15.2422V12.9219H49.2352V15.2422H50.8352ZM66.207 16.0859L65.4915 16.4437L67.007 16.0859H66.207ZM66.207 27.7578H67.007L65.4787 27.4268L66.207 27.7578ZM66.207 31.0625H65.407V31.8625H66.207V31.0625ZM69.0898 31.0625V31.8625H69.8898V31.0625H69.0898ZM69.0898 12.9219H69.8898V12.1219H69.0898V12.9219ZM66.207 12.9219V12.1219H65.407V12.9219H66.207ZM66.9226 15.7282C65.652 13.1871 63.1823 11.7 60.0898 11.7V13.3C62.6224 13.3 64.512 14.4848 65.4915 16.4437L66.9226 15.7282ZM60.0898 11.7C57.4667 11.7 55.2376 12.7684 53.6771 14.6214C52.1261 16.4632 51.2742 19.0307 51.2742 21.9922H52.8742C52.8742 19.3287 53.6395 17.1501 54.901 15.652C56.153 14.1652 57.9318 13.3 60.0898 13.3V11.7ZM51.2742 21.9922C51.2742 24.9499 52.1067 27.4864 53.6546 29.2972C55.2128 31.12 57.444 32.1438 60.0898 32.1438V30.5437C57.8841 30.5437 56.1075 29.7042 54.8708 28.2575C53.6238 26.7988 52.8742 24.6595 52.8742 21.9922H51.2742ZM60.0898 32.1438C63.1548 32.1438 65.7272 30.7466 66.9353 28.0889L65.4787 27.4268C64.5774 29.4096 62.6499 30.5437 60.0898 30.5437V32.1438ZM65.407 27.7578V31.0625H67.007V27.7578H65.407ZM66.207 31.8625H69.0898V30.2625H66.207V31.8625ZM69.8898 31.0625V12.9219H68.2898V31.0625H69.8898ZM69.0898 12.1219H66.207V13.7219H69.0898V12.1219ZM65.407 12.9219V16.0859H67.007V12.9219H65.407ZM65.407 21.9219C65.407 24.033 64.936 25.5717 64.1475 26.5666C63.3813 27.5332 62.2397 28.0828 60.6523 28.0828V29.6828C62.6509 29.6828 64.2867 28.9668 65.4014 27.5604C66.4937 26.1822 67.007 24.2404 67.007 21.9219H65.407ZM60.6523 28.0828C59.0563 28.0828 57.8948 27.5444 57.1139 26.5915C56.3133 25.6147 55.8273 24.0976 55.8273 21.9922H54.2273C54.2273 24.3164 54.7609 26.2446 55.8764 27.6057C57.0115 28.9908 58.6624 29.6828 60.6523 29.6828V28.0828ZM55.8273 21.9922C55.8273 19.887 56.3133 18.3289 57.1211 17.3135C57.9085 16.3239 59.0711 15.7609 60.6523 15.7609V14.1609C58.6476 14.1609 56.9977 14.8988 55.8691 16.3173C54.7609 17.7102 54.2273 19.6677 54.2273 21.9922H55.8273ZM60.6523 15.7609C62.2469 15.7609 63.3866 16.2979 64.1493 17.2531C64.9348 18.2369 65.407 19.7728 65.407 21.9219H67.007C67.007 19.5709 66.4948 17.6264 65.3996 16.2547C64.2814 14.8544 62.6438 14.1609 60.6523 14.1609V15.7609ZM76.8945 8.56251V9.36251H77.6945V8.56251H76.8945ZM76.8945 5.25782H77.6945V4.45782H76.8945V5.25782ZM73.3789 5.25782V4.45782H72.5789V5.25782H73.3789ZM73.3789 8.56251H72.5789V9.36251H73.3789V8.56251ZM76.543 12.9219H77.343V12.1219H76.543V12.9219ZM73.6602 12.9219V12.1219H72.8602V12.9219H73.6602ZM73.6602 31.0625H72.8602V31.8625H73.6602V31.0625ZM76.543 31.0625V31.8625H77.343V31.0625H76.543ZM77.6945 8.56251V5.25782H76.0945V8.56251H77.6945ZM76.8945 4.45782H73.3789V6.05782H76.8945V4.45782ZM72.5789 5.25782V8.56251H74.1789V5.25782H72.5789ZM73.3789 9.36251H76.8945V7.76251H73.3789V9.36251ZM76.543 12.1219H73.6602V13.7219H76.543V12.1219ZM72.8602 12.9219V31.0625H74.4602V12.9219H72.8602ZM73.6602 31.8625H76.543V30.2625H73.6602V31.8625ZM77.343 31.0625V12.9219H75.743V31.0625H77.343ZM85.1211 4.5547H85.9211V3.7547H85.1211V4.5547ZM82.2383 4.5547V3.7547H81.4383V4.5547H82.2383ZM82.2383 31.0625H81.4383V31.8625H82.2383V31.0625ZM85.1211 31.0625V31.8625H85.9211V31.0625H85.1211ZM85.1211 3.7547H82.2383V5.3547H85.1211V3.7547ZM81.4383 4.5547V31.0625H83.0383V4.5547H81.4383ZM82.2383 31.8625H85.1211V30.2625H82.2383V31.8625ZM85.9211 31.0625V4.5547H84.3211V31.0625H85.9211ZM104.949 12.9219L105.703 12.6549L105.515 12.1219H104.949V12.9219ZM102.348 12.9219V12.1219H101.786L101.595 12.6505L102.348 12.9219ZM97.0742 27.5469L96.3194 27.8118L97.064 29.9336L97.8268 27.8182L97.0742 27.5469ZM91.9414 12.9219L92.6963 12.657L92.5085 12.1219H91.9414V12.9219ZM88.918 12.9219V12.1219H87.7709L88.1672 13.1983L88.918 12.9219ZM95.5977 31.0625L94.8469 31.3389L95.0397 31.8625H95.5977V31.0625ZM98.4102 31.0625V31.8625H98.9707L99.1621 31.3356L98.4102 31.0625ZM103.543 16.9297L104.294 16.6533L103.538 14.6002L102.791 16.6566L103.543 16.9297ZM108.746 31.0625L107.995 31.3389L108.188 31.8625H108.746V31.0625ZM111.559 31.0625V31.8625H112.117L112.309 31.3389L111.559 31.0625ZM118.238 12.9219L118.989 13.1983L119.385 12.1219H118.238V12.9219ZM115.355 12.9219V12.1219H114.79L114.601 12.6549L115.355 12.9219ZM110.152 27.6172L109.398 27.8842L110.152 30.0141L110.907 27.8842L110.152 27.6172ZM104.949 12.1219H102.348V13.7219H104.949V12.1219ZM101.595 12.6505L96.3216 27.2755L97.8268 27.8182L103.1 13.1932L101.595 12.6505ZM97.8291 27.2819L92.6963 12.657L91.1865 13.1868L96.3194 27.8118L97.8291 27.2819ZM91.9414 12.1219H88.918V13.7219H91.9414V12.1219ZM88.1672 13.1983L94.8469 31.3389L96.3484 30.7861L89.6687 12.6455L88.1672 13.1983ZM95.5977 31.8625H98.4102V30.2625H95.5977V31.8625ZM99.1621 31.3356L104.295 17.2028L102.791 16.6566L97.6582 30.7894L99.1621 31.3356ZM102.792 17.2061L107.995 31.3389L109.497 30.7861L104.294 16.6533L102.792 17.2061ZM108.746 31.8625H111.559V30.2625H108.746V31.8625ZM112.309 31.3389L118.989 13.1983L117.488 12.6455L110.808 30.7861L112.309 31.3389ZM118.238 12.1219H115.355V13.7219H118.238V12.1219ZM114.601 12.6549L109.398 27.3502L110.907 27.8842L116.11 13.1889L114.601 12.6549ZM110.907 27.3502L105.703 12.6549L104.195 13.1889L109.398 27.8842L110.907 27.3502ZM125.27 8.56251V9.36251H126.07V8.56251H125.27ZM125.27 5.25782H126.07V4.45782H125.27V5.25782ZM121.754 5.25782V4.45782H120.954V5.25782H121.754ZM121.754 8.56251H120.954V9.36251H121.754V8.56251ZM124.918 12.9219H125.718V12.1219H124.918V12.9219ZM122.035 12.9219V12.1219H121.235V12.9219H122.035ZM122.035 31.0625H121.235V31.8625H122.035V31.0625ZM124.918 31.0625V31.8625H125.718V31.0625H124.918ZM126.07 8.56251V5.25782H124.469V8.56251H126.07ZM125.27 4.45782H121.754V6.05782H125.27V4.45782ZM120.954 5.25782V8.56251H122.554V5.25782H120.954ZM121.754 9.36251H125.27V7.76251H121.754V9.36251ZM124.918 12.1219H122.035V13.7219H124.918V12.1219ZM121.235 12.9219V31.0625H122.835V12.9219H121.235ZM122.035 31.8625H124.918V30.2625H122.035V31.8625ZM125.718 31.0625V12.9219H124.118V31.0625H125.718ZM133.355 16.2266L132.558 16.2944L132.811 19.2625L134.079 16.5672L133.355 16.2266ZM133.074 12.9219L133.871 12.8541L133.809 12.1219H133.074V12.9219ZM130.332 12.9219V12.1219H129.456L129.535 12.9943L130.332 12.9219ZM130.613 31.0625H129.813V31.8625H130.613V31.0625ZM133.496 31.0625V31.8625H134.296V31.0625H133.496ZM143.27 31.0625H142.47V31.8625H143.27V31.0625ZM146.152 31.0625V31.8625H146.952V31.0625H146.152ZM146.952 19.6719C146.952 17.1753 146.385 15.1536 145.109 13.754C143.82 12.3404 141.936 11.7 139.613 11.7V13.3C141.65 13.3 143.036 13.855 143.926 14.832C144.83 15.823 145.352 17.3872 145.352 19.6719H146.952ZM139.613 11.7C136.533 11.7 133.906 13.1789 132.632 15.8859L134.079 16.5672C135.055 14.493 137.069 13.3 139.613 13.3V11.7ZM134.153 16.1587L133.871 12.8541L132.277 12.9897L132.558 16.2944L134.153 16.1587ZM133.074 12.1219H130.332V13.7219H133.074V12.1219ZM129.535 12.9943C129.676 14.5378 129.813 16.1948 129.813 18.0547H131.413C131.413 16.1177 131.27 14.3997 131.129 12.8495L129.535 12.9943ZM129.813 18.0547V31.0625H131.413V18.0547H129.813ZM130.613 31.8625H133.496V30.2625H130.613V31.8625ZM134.296 31.0625V20.7266H132.696V31.0625H134.296ZM134.296 20.7266C134.296 19.1418 134.8 17.9125 135.607 17.0835C136.413 16.2559 137.585 15.7609 139.051 15.7609V14.1609C137.212 14.1609 135.606 14.791 134.461 15.9673C133.317 17.1422 132.696 18.7957 132.696 20.7266H134.296ZM139.051 15.7609C140.353 15.7609 141.146 16.1066 141.637 16.6719C142.149 17.2614 142.47 18.245 142.47 19.8125H144.07C144.07 18.0753 143.722 16.6331 142.845 15.623C141.947 14.5888 140.632 14.1609 139.051 14.1609V15.7609ZM142.47 19.8125V31.0625H144.07V19.8125H142.47ZM143.27 31.8625H146.152V30.2625H143.27V31.8625ZM146.952 31.0625V19.6719H145.352V31.0625H146.952ZM164.504 16.0156L163.784 16.3641L165.304 16.0156H164.504ZM164.574 27.7578H165.374L163.846 27.4268L164.574 27.7578ZM164.574 31.0625H163.774V31.8625H164.574V31.0625ZM167.457 31.0625V31.8625H168.257V31.0625H167.457ZM167.457 4.5547H168.257V3.7547H167.457V4.5547ZM164.504 4.5547V3.7547H163.704V4.5547H164.504ZM165.224 15.6672C164.021 13.1812 161.541 11.7 158.457 11.7V13.3C160.998 13.3 162.877 14.4907 163.784 16.3641L165.224 15.6672ZM158.457 11.7C155.811 11.7 153.58 12.7238 152.022 14.5466C150.474 16.3574 149.641 18.8939 149.641 21.8516H151.241C151.241 19.1843 151.991 17.045 153.238 15.5862C154.475 14.1395 156.251 13.3 158.457 13.3V11.7ZM149.641 21.8516C149.641 24.813 150.493 27.3805 152.044 29.2223C153.605 31.0754 155.834 32.1438 158.457 32.1438V30.5437C156.299 30.5437 154.52 29.6785 153.268 28.1917C152.007 26.6937 151.241 24.5151 151.241 21.8516H149.641ZM158.457 32.1438C161.522 32.1438 164.094 30.7466 165.303 28.0889L163.846 27.4268C162.945 29.4096 161.017 30.5437 158.457 30.5437V32.1438ZM163.774 27.7578V31.0625H165.374V27.7578H163.774ZM164.574 31.8625H167.457V30.2625H164.574V31.8625ZM168.257 31.0625V4.5547H166.657V31.0625H168.257ZM167.457 3.7547H164.504V5.3547H167.457V3.7547ZM163.704 4.5547V16.0156H165.304V4.5547H163.704ZM163.774 21.9219C163.774 24.033 163.303 25.5717 162.515 26.5666C161.748 27.5332 160.607 28.0828 159.02 28.0828V29.6828C161.018 29.6828 162.654 28.9668 163.769 27.5604C164.861 26.1822 165.374 24.2404 165.374 21.9219H163.774ZM159.02 28.0828C157.438 28.0828 156.276 27.5199 155.488 26.5302C154.68 25.5149 154.195 23.9567 154.195 21.8516H152.595C152.595 24.1761 153.128 26.1336 154.236 27.5264C155.365 28.945 157.015 29.6828 159.02 29.6828V28.0828ZM154.195 21.8516C154.195 19.7841 154.679 18.2642 155.483 17.2763C156.267 16.3121 157.431 15.7609 159.02 15.7609V14.1609C157.023 14.1609 155.373 14.8754 154.242 16.2667C153.129 17.6342 152.595 19.5597 152.595 21.8516H154.195ZM159.02 15.7609C160.607 15.7609 161.748 16.3105 162.515 17.2772C163.303 18.2721 163.774 19.8107 163.774 21.9219H165.374C165.374 19.6033 164.861 17.6615 163.769 16.2834C162.654 14.877 161.018 14.1609 159.02 14.1609V15.7609ZM174.91 4.5547H175.71V3.7547H174.91V4.5547ZM172.027 4.5547V3.7547H171.227V4.5547H172.027ZM172.027 31.0625H171.227V31.8625H172.027V31.0625ZM174.91 31.0625V31.8625H175.71V31.0625H174.91ZM174.91 3.7547H172.027V5.3547H174.91V3.7547ZM171.227 4.5547V31.0625H172.827V4.5547H171.227ZM172.027 31.8625H174.91V30.2625H172.027V31.8625ZM175.71 31.0625V4.5547H174.11V31.0625H175.71ZM187.355 27.8984L186.615 28.2009L187.351 30.0038L188.095 28.2039L187.355 27.8984ZM181.238 12.9219L181.979 12.6194L181.776 12.1219H181.238V12.9219ZM178.145 12.9219V12.1219H176.933L177.409 13.2363L178.145 12.9219ZM185.809 30.8516L186.542 31.1705L186.68 30.8543L186.544 30.5371L185.809 30.8516ZM185.105 32.4688L184.372 32.1497L184.368 32.1583L185.105 32.4688ZM182.926 35.4219L183.381 36.0796L183.394 36.071L183.406 36.0619L182.926 35.4219ZM179.059 36.9688L178.865 36.1926L178.065 36.3924L178.288 37.1853L179.059 36.9688ZM179.691 39.2188L178.921 39.4353L179.118 40.1361L179.835 40.0058L179.691 39.2188ZM187.988 32.75L188.723 33.0667L188.724 33.0632L187.988 32.75ZM196.426 12.9219L197.162 13.2351L197.636 12.1219H196.426V12.9219ZM193.543 12.9219V12.1219H193.008L192.804 12.6164L193.543 12.9219ZM188.096 27.5959L181.979 12.6194L180.498 13.2244L186.615 28.2009L188.096 27.5959ZM181.238 12.1219H178.145V13.7219H181.238V12.1219ZM177.409 13.2363L185.073 31.166L186.544 30.5371L178.88 12.6075L177.409 13.2363ZM185.075 30.5326L184.372 32.1497L185.839 32.7877L186.542 31.1705L185.075 30.5326ZM184.368 32.1583C183.852 33.384 183.16 34.2466 182.446 34.7819L183.406 36.0619C184.38 35.3316 185.234 34.2254 185.843 32.7792L184.368 32.1583ZM182.47 34.7641C181.672 35.3167 180.514 35.7802 178.865 36.1926L179.253 37.7449C180.978 37.3136 182.351 36.7926 183.381 36.0796L182.47 34.7641ZM178.288 37.1853L178.921 39.4353L180.462 39.0022L179.829 36.7522L178.288 37.1853ZM179.835 40.0058C181.846 39.6402 183.608 39.0075 185.108 37.892C186.613 36.773 187.8 35.2086 188.723 33.0667L187.254 32.4333C186.419 34.3695 185.391 35.688 184.153 36.608C182.911 37.5316 181.404 38.0942 179.548 38.4317L179.835 40.0058ZM188.724 33.0632L197.162 13.2351L195.69 12.6086L187.252 32.4368L188.724 33.0632ZM196.426 12.1219H193.543V13.7219H196.426V12.1219ZM192.804 12.6164L186.616 27.593L188.095 28.2039L194.282 13.2274L192.804 12.6164Z" fill="currentColor"/>
<path fill-rule="evenodd" clip-rule="evenodd" d="M18.1415 36.4064C21.5166 36.4064 24.8998 35.8605 28.2913 34.7685C28.7049 34.0903 28.9862 33.2051 29.1351 32.1133C28.4899 32.1628 27.8778 32.1877 27.2987 32.1877C24.8998 32.1877 23.1461 31.7658 22.0377 30.922C21.409 30.4423 20.9541 29.7723 20.6728 28.912C20.3915 28.0351 20.2509 26.6205 20.2509 24.6683C20.2509 22.6996 20.5735 19.6556 21.2188 15.536C21.8805 11.4166 22.7657 7.40459 23.8741 3.50018C22.5505 3.50018 21.4752 3.62426 20.648 3.87243C19.0267 5.72539 17.3557 7.28879 15.6351 8.56267C13.9145 9.83659 11.921 10.9781 9.6544 11.9873C9.77024 12.6656 9.82812 13.65 9.82812 14.9404C9.82812 16.2144 9.58824 18.5388 9.10844 21.9138C8.62868 25.2723 8.3888 27.514 8.3888 28.6389C8.3888 33.8173 11.6397 36.4064 18.1415 36.4064Z" fill="#0EA5E9"/>
<path d="M23.9486 17.5213C24.0974 15.2217 24.4697 13.0875 25.0653 11.1188C26.6866 11.7971 28.4982 12.2769 30.5 12.5581C30.6323 12.8063 30.7564 13.2199 30.8723 13.7989C30.9881 14.3614 31.046 14.8081 31.046 15.139C28.7464 15.7677 26.3805 16.5617 23.9486 17.5213Z" fill="black"/>
<path fill-rule="evenodd" clip-rule="evenodd" d="M8.4 16.9997C8.4 21.1067 10.4446 23.6729 14.5337 24.7001C12.4892 23.1599 11.7226 21.3632 12.2334 19.31C12.5248 18.1385 13.3712 17.3009 14.3082 16.3744C15.8341 14.8644 17.6 13.1165 17.6 9.29982C17.6 5.19342 15.5554 2.62658 11.4669 1.59998C13.5114 3.13958 14.278 4.9363 13.7666 6.9895C13.4752 8.16158 12.6288 8.99926 11.6924 9.9257C10.1653 11.4357 8.4 13.1829 8.4 16.9997ZM17.6 24.7001C17.6 28.8066 19.6446 31.3734 23.7337 32.4C21.6892 30.8598 20.9226 29.0631 21.4334 27.0105C21.7248 25.8384 22.5712 25.0007 23.5082 24.0743C25.0341 22.5642 26.8 20.817 26.8 16.9997C26.8 12.8933 24.756 10.3264 20.6669 9.29982C22.7114 10.8401 23.478 12.6367 22.9672 14.69C22.6752 15.8614 21.8288 16.6991 20.8924 17.6255C19.3665 19.1356 17.6 20.8834 17.6 24.7001Z" fill="black"/>
<path d="M26.3911 13.9334C26.3587 14.1741 26.2398 14.3947 26.0567 14.5542C25.8736 14.7136 25.6388 14.801 25.396 14.8C25.1532 14.799 24.919 14.7098 24.7372 14.5489C24.5554 14.388 24.4383 14.1664 24.4079 13.9255C24.3774 13.6846 24.4356 13.4409 24.5717 13.2398C24.7077 13.0387 24.9122 12.8939 25.1471 12.8325C25.3821 12.7712 25.6313 12.7973 25.8483 12.9062C26.0653 13.015 26.2353 13.1991 26.3266 13.4241L25.8064 13.6352C25.7663 13.5365 25.6918 13.4558 25.5966 13.408C25.5014 13.3603 25.3921 13.3488 25.2891 13.3757C25.1861 13.4026 25.0964 13.4661 25.0367 13.5543C24.9771 13.6425 24.9515 13.7494 24.9649 13.8551C24.9783 13.9607 25.0296 14.0579 25.1093 14.1284C25.1891 14.199 25.2917 14.2382 25.3982 14.2386C25.5047 14.239 25.6077 14.2007 25.688 14.1308C25.7683 14.0608 25.8204 13.9641 25.8346 13.8586L26.3911 13.9334Z" fill="white"/>
</svg>
